<svg width="139" height="46" viewBox="0 0 139 46" fill="none" xmlns="http://www.w3.org/2000/svg">
<path d="M20.6803 32.4385C20.6803 34.4749 20.306 36.2493 19.5573 37.7617C18.8235 39.2741 17.8128 40.5319 16.525 41.5352C15.2373 42.5534 13.7174 43.3096 11.9655 43.8037C10.2285 44.3128 8.36424 44.5674 6.3727 44.5674C5.60903 44.5674 4.87531 44.5 4.17153 44.3652C3.46776 44.2454 2.84634 44.0732 2.30727 43.8486C1.76821 43.624 1.34145 43.3545 1.027 43.04C0.697573 42.7406 0.53286 42.4111 0.53286 42.0518C0.53286 41.7822 0.570295 41.5052 0.645164 41.2207C0.720034 40.9512 0.832339 40.7041 0.982079 40.4795C1.13182 40.2549 1.31899 40.0677 1.5436 39.918C1.75324 39.7682 1.99282 39.6934 2.26235 39.6934C2.42707 39.6934 2.56932 39.7757 2.68911 39.9404C2.82388 40.1051 2.95864 40.3073 3.09341 40.5469C3.22817 40.8014 3.37791 41.071 3.54263 41.3555C3.72231 41.64 3.94692 41.902 4.21645 42.1416C4.50096 42.3962 4.83787 42.6058 5.2272 42.7705C5.61652 42.9352 6.10317 43.0176 6.68716 43.0176C7.84015 43.0176 8.82843 42.8079 9.652 42.3887C10.4905 41.9694 11.1793 41.3779 11.7184 40.6143C12.2575 39.8506 12.6543 38.9372 12.9088 37.874C13.1784 36.8258 13.3131 35.6729 13.3131 34.415V6.49609C13.3131 6.16667 13.2757 5.90462 13.2008 5.70996C13.126 5.5153 13.0211 5.36556 12.8864 5.26074C12.7516 5.14095 12.5869 5.06608 12.3922 5.03613C12.2125 4.99121 12.0104 4.96875 11.7858 4.96875C11.4564 4.96875 11.0446 5.02116 10.5504 5.12598C10.0713 5.23079 9.56216 5.38802 9.02309 5.59766C8.48403 5.80729 7.93748 6.06934 7.38345 6.38379C6.84438 6.68327 6.35773 7.02767 5.92348 7.41699C5.50421 7.80632 5.15981 8.24056 4.89028 8.71973C4.62075 9.19889 4.48598 9.71549 4.48598 10.2695C4.48598 10.7487 4.54588 11.1305 4.66567 11.415C4.80044 11.6995 4.95018 11.9167 5.11489 12.0664C5.2796 12.2012 5.44432 12.291 5.60903 12.3359C5.78872 12.3659 5.916 12.3809 5.99087 12.3809C6.36522 12.3809 6.67218 12.321 6.91177 12.2012C7.15135 12.0664 7.36847 11.9316 7.56313 11.7969C7.75779 11.6471 7.93748 11.5124 8.1022 11.3926C8.28188 11.2578 8.48403 11.1904 8.70864 11.1904C8.88833 11.1904 9.0755 11.2354 9.27016 11.3252C9.4798 11.4001 9.66697 11.5273 9.83169 11.707C10.0114 11.8867 10.1611 12.1263 10.2809 12.4258C10.4007 12.7103 10.4606 13.0622 10.4606 13.4814C10.4606 14.0804 10.3408 14.597 10.1012 15.0312C9.87661 15.4655 9.57713 15.8324 9.20278 16.1318C8.84341 16.4163 8.42414 16.6335 7.94497 16.7832C7.48078 16.918 7.01658 16.9854 6.55239 16.9854C5.83364 16.9854 5.18227 16.8656 4.59829 16.626C4.02928 16.3714 3.54263 16.027 3.13833 15.5928C2.73403 15.1585 2.42707 14.6494 2.21743 14.0654C2.00779 13.4814 1.90298 12.86 1.90298 12.2012C1.90298 11.168 2.09015 10.2246 2.4645 9.37109C2.83885 8.5026 3.34796 7.72396 3.99184 7.03516C4.6507 6.34635 5.41437 5.7474 6.28286 5.23828C7.16632 4.71419 8.11717 4.27995 9.1354 3.93555C10.1536 3.59115 11.2168 3.33659 12.3249 3.17188C13.4329 2.99219 14.541 2.90234 15.6491 2.90234C16.8769 2.90234 17.8278 3.02214 18.5016 3.26172C19.1904 3.48633 19.692 3.76335 20.0065 4.09277C20.3359 4.4222 20.5306 4.7666 20.5905 5.12598C20.6504 5.48535 20.6803 5.78483 20.6803 6.02441V32.4385ZM46.5329 32.5732C46.5329 32.708 46.5403 32.8577 46.5553 33.0225C46.5703 33.1722 46.6077 33.3219 46.6676 33.4717C46.7275 33.6064 46.8174 33.7188 46.9372 33.8086C47.0569 33.8984 47.2291 33.9434 47.4538 33.9434C47.7383 33.9434 47.9928 33.846 48.2174 33.6514C48.442 33.4417 48.6517 33.2321 48.8463 33.0225L49.3854 33.4941C49.1608 33.8086 48.8763 34.1605 48.5319 34.5498C48.2025 34.9242 47.7982 35.2835 47.319 35.6279C46.8398 35.9723 46.2933 36.2568 45.6793 36.4814C45.0654 36.721 44.3691 36.8408 43.5905 36.8408C42.9316 36.8408 42.3551 36.751 41.861 36.5713C41.3818 36.4066 40.97 36.182 40.6256 35.8975C40.2962 35.598 40.0491 35.2536 39.8844 34.8643C39.7197 34.46 39.6374 34.0332 39.6374 33.584V32.5732C38.8887 33.3818 38.1025 34.0931 37.279 34.707C36.9196 34.9766 36.5377 35.2386 36.1334 35.4932C35.7291 35.7477 35.3099 35.9798 34.8756 36.1895C34.4414 36.3841 33.9922 36.5413 33.528 36.6611C33.0638 36.7809 32.5996 36.8408 32.1354 36.8408C31.237 36.8408 30.4658 36.6836 29.8219 36.3691C29.193 36.0397 28.6839 35.613 28.2946 35.0889C27.9053 34.5648 27.6208 33.9733 27.4411 33.3145C27.2614 32.6556 27.1715 31.9967 27.1715 31.3379V17.4346C27.1715 17.2998 27.164 17.1576 27.1491 17.0078C27.1341 16.8431 27.0967 16.6934 27.0368 16.5586C26.9769 16.4089 26.887 16.2891 26.7672 16.1992C26.6474 16.1094 26.4752 16.0645 26.2506 16.0645C25.9811 16.0645 25.7265 16.1693 25.487 16.3789C25.2624 16.5736 25.0602 16.7757 24.8805 16.9854L24.319 16.5137C24.5436 16.1992 24.8206 15.8548 25.15 15.4805C25.4944 15.0911 25.9062 14.7243 26.3854 14.3799C26.8646 14.0355 27.4111 13.751 28.025 13.5264C28.654 13.2868 29.3502 13.167 30.1139 13.167C30.7728 13.167 31.3493 13.2568 31.8434 13.4365C32.3375 13.6012 32.7493 13.8333 33.0788 14.1328C33.4082 14.4173 33.6553 14.7617 33.82 15.166C33.9847 15.5553 34.067 15.9746 34.067 16.4238V31.4277C34.067 31.6374 34.097 31.8545 34.1569 32.0791C34.2318 32.2887 34.3291 32.4834 34.4489 32.6631C34.5836 32.8428 34.7484 32.9925 34.943 33.1123C35.1377 33.2171 35.3698 33.2695 35.6393 33.2695C36.0735 33.2695 36.5078 33.1572 36.942 32.9326C37.3763 32.708 37.7731 32.446 38.1325 32.1465C38.4918 31.832 38.7988 31.5251 39.0534 31.2256C39.3229 30.9261 39.5176 30.7015 39.6374 30.5518V17.4346C39.6374 17.2998 39.6299 17.1576 39.6149 17.0078C39.5999 16.8431 39.5625 16.6934 39.5026 16.5586C39.4427 16.4089 39.3528 16.2891 39.2331 16.1992C39.1133 16.1094 38.9411 16.0645 38.7165 16.0645C38.4469 16.0645 38.1924 16.1693 37.9528 16.3789C37.7282 16.5736 37.526 16.7757 37.3463 16.9854L36.7848 16.5137C37.0094 16.1992 37.2864 15.8548 37.6159 15.4805C37.9603 15.0911 38.3721 14.7243 38.8512 14.3799C39.3304 14.0355 39.8769 13.751 40.4909 13.5264C41.1198 13.2868 41.8161 13.167 42.5797 13.167C43.2386 13.167 43.8151 13.2568 44.3092 13.4365C44.8034 13.6012 45.2152 13.8333 45.5446 14.1328C45.874 14.4173 46.1211 14.7617 46.2858 15.166C46.4505 15.5553 46.5329 15.9746 46.5329 16.4238V32.5732ZM59.6725 14.9639C59.3281 14.9639 58.9987 15.0088 58.6842 15.0986C58.3847 15.1885 58.1152 15.3382 57.8756 15.5479C57.636 15.7425 57.4489 15.9971 57.3141 16.3115C57.1793 16.611 57.112 16.9704 57.112 17.3896C57.112 17.9736 57.3216 18.5576 57.7409 19.1416C58.1751 19.7106 58.7067 20.3096 59.3356 20.9385C59.9795 21.5524 60.6683 22.1963 61.402 22.8701C62.1507 23.529 62.8395 24.2327 63.4684 24.9814C64.1123 25.7152 64.6439 26.5013 65.0631 27.3398C65.4974 28.1784 65.7145 29.0768 65.7145 30.0352C65.7145 31.1133 65.5273 32.0716 65.153 32.9102C64.7936 33.7487 64.2695 34.46 63.5807 35.0439C62.9069 35.6279 62.0833 36.0771 61.11 36.3916C60.1517 36.6911 59.081 36.8408 57.8981 36.8408C56.8649 36.8408 55.929 36.6986 55.0905 36.4141C54.2519 36.1146 53.5032 35.7552 52.8444 35.3359C52.2005 34.9017 51.6465 34.445 51.1823 33.9658C50.7181 33.4867 50.3587 33.0524 50.1041 32.6631L50.8903 32.1016C51.0849 32.3262 51.332 32.5732 51.6315 32.8428C51.931 33.0973 52.2604 33.3369 52.6198 33.5615C52.9941 33.7861 53.3909 33.9733 53.8102 34.123C54.2295 34.2578 54.6562 34.3252 55.0905 34.3252C56.1686 34.3252 57.0521 34.0706 57.7409 33.5615C58.4297 33.0374 58.7741 32.2663 58.7741 31.248C58.7741 30.679 58.5869 30.0951 58.2125 29.4961C57.8382 28.8822 57.3665 28.2533 56.7975 27.6094C56.2285 26.9655 55.6146 26.2992 54.9557 25.6104C54.2969 24.9215 53.6829 24.2103 53.1139 23.4766C52.5449 22.7428 52.0732 21.9867 51.6989 21.208C51.3245 20.4294 51.1374 19.6208 51.1374 18.7822C51.1374 17.8389 51.3245 17.0153 51.6989 16.3115C52.0882 15.6077 52.5973 15.0238 53.2262 14.5596C53.8701 14.0954 54.5963 13.751 55.4049 13.5264C56.2285 13.2868 57.0745 13.167 57.943 13.167C58.9463 13.167 59.8597 13.2568 60.6833 13.4365C61.5068 13.6162 62.2106 13.8932 62.7946 14.2676C63.3935 14.627 63.8502 15.0837 64.1647 15.6377C64.4941 16.1917 64.6588 16.8356 64.6588 17.5693C64.6588 18.1383 64.4717 18.6325 64.0973 19.0518C63.723 19.471 63.1989 19.6807 62.525 19.6807C61.8812 19.6807 61.387 19.5459 61.0426 19.2764C60.7132 18.9919 60.5485 18.61 60.5485 18.1309C60.5485 17.8164 60.6234 17.5693 60.7731 17.3896C60.9378 17.21 61.1175 17.0677 61.3122 16.9629C61.5068 16.8431 61.679 16.7458 61.8288 16.6709C61.9935 16.5811 62.0758 16.4688 62.0758 16.334C62.0758 15.9147 61.8512 15.5853 61.402 15.3457C60.9528 15.0911 60.3763 14.9639 59.6725 14.9639ZM76.7204 15.0986V31.6973C76.7204 32.4909 76.8701 33.0449 77.1696 33.3594C77.4691 33.6589 77.8808 33.8086 78.4049 33.8086C78.8092 33.8086 79.1686 33.6963 79.4831 33.4717C79.7975 33.2471 80.067 32.9925 80.2916 32.708C80.5612 32.3936 80.7933 32.0267 80.9879 31.6074L81.6842 31.9219C81.4596 32.401 81.1901 32.9251 80.8756 33.4941C80.5762 34.0632 80.1719 34.5947 79.6627 35.0889C79.1536 35.568 78.5097 35.9723 77.7311 36.3018C76.9674 36.6312 76.0016 36.7959 74.8336 36.7959C74.1748 36.7959 73.5384 36.6986 72.9245 36.5039C72.3255 36.3092 71.7864 36.0023 71.3073 35.583C70.8431 35.1637 70.4687 34.6396 70.1842 34.0107C69.8997 33.3818 69.7575 32.6257 69.7575 31.7422V15.0986H67.2418V13.4814C67.6611 13.4814 68.2451 13.3766 68.9938 13.167C69.7425 12.9424 70.5062 12.5755 71.2848 12.0664C72.0784 11.5573 72.8122 10.876 73.486 10.0225C74.1598 9.16895 74.639 8.11328 74.9235 6.85547H76.7204V13.4814H80.3815C81.5794 13.4814 82.1784 13.2793 82.1784 12.875C82.1784 12.7253 82.1035 12.6279 81.9538 12.583C81.804 12.5231 81.6318 12.4557 81.4372 12.3809C81.2575 12.291 81.0928 12.1712 80.943 12.0215C80.7933 11.8717 80.7184 11.6247 80.7184 11.2803C80.7184 10.861 80.8457 10.5316 81.1002 10.292C81.3698 10.0524 81.7142 9.93262 82.1334 9.93262C82.403 9.93262 82.6351 9.99251 82.8297 10.1123C83.0394 10.2171 83.2116 10.3669 83.3463 10.5615C83.4811 10.7412 83.5784 10.9508 83.6383 11.1904C83.7132 11.43 83.7506 11.6696 83.7506 11.9092C83.7506 12.8825 83.4661 13.6611 82.8971 14.2451C82.3431 14.8141 81.4446 15.0986 80.2018 15.0986H76.7204ZM102.303 39.7383C102.902 39.7383 103.494 39.626 104.078 39.4014C104.662 39.1917 105.178 38.8324 105.628 38.3232C106.092 37.8291 106.466 37.1777 106.751 36.3691C107.035 35.5605 107.177 34.5723 107.177 33.4043C107.177 32.1465 106.863 30.9261 106.234 29.7432C105.62 28.5602 104.841 27.3997 103.898 26.2617C102.97 25.1087 101.959 23.9707 100.866 22.8477C99.7877 21.7096 98.777 20.5566 97.8336 19.3887C96.9053 18.2057 96.1266 16.9928 95.4977 15.75C94.8838 14.4922 94.5768 13.182 94.5768 11.8193C94.5768 10.4567 94.8239 9.22884 95.318 8.13574C95.8271 7.02767 96.5084 6.0918 97.362 5.32812C98.2305 4.54948 99.2337 3.95052 100.372 3.53125C101.525 3.11198 102.753 2.90234 104.055 2.90234C105.448 2.90234 106.683 3.05208 107.761 3.35156C108.854 3.63607 109.775 4.03288 110.524 4.54199C111.288 5.03613 111.864 5.6276 112.254 6.31641C112.643 6.99023 112.838 7.70898 112.838 8.47266C112.838 8.83203 112.785 9.20638 112.68 9.5957C112.576 9.97005 112.411 10.3145 112.186 10.6289C111.962 10.9434 111.677 11.2054 111.333 11.415C110.988 11.6247 110.584 11.7295 110.12 11.7295C109.566 11.7295 109.154 11.5648 108.884 11.2354C108.63 10.891 108.435 10.4717 108.3 9.97754C108.181 9.4834 108.076 8.94434 107.986 8.36035C107.896 7.76139 107.754 7.21484 107.559 6.7207C107.365 6.22656 107.073 5.81478 106.683 5.48535C106.294 5.14095 105.725 4.96875 104.976 4.96875C104.572 4.96875 104.168 5.05859 103.763 5.23828C103.374 5.41797 103.015 5.69499 102.685 6.06934C102.371 6.42871 102.116 6.8929 101.922 7.46191C101.727 8.03092 101.63 8.70475 101.63 9.4834C101.63 10.3818 101.817 11.2578 102.191 12.1113C102.565 12.9648 103.06 13.8109 103.673 14.6494C104.287 15.473 104.984 16.304 105.762 17.1426C106.556 17.9661 107.357 18.8047 108.166 19.6582C108.989 20.4967 109.79 21.3652 110.569 22.2637C111.363 23.1471 112.066 24.068 112.68 25.0264C113.294 25.9847 113.788 26.988 114.163 28.0361C114.537 29.0843 114.724 30.1849 114.724 31.3379C114.724 33.0299 114.395 34.5423 113.736 35.875C113.092 37.1927 112.209 38.3008 111.086 39.1992C109.978 40.1126 108.675 40.8089 107.177 41.2881C105.68 41.7673 104.085 42.0068 102.393 42.0068C100.866 42.0068 99.5107 41.8122 98.3278 41.4229C97.1598 41.0485 96.1715 40.5469 95.3629 39.918C94.5543 39.2891 93.9404 38.5703 93.5211 37.7617C93.1168 36.9681 92.9147 36.1445 92.9147 35.291C92.9147 34.9316 92.9671 34.5498 93.0719 34.1455C93.1917 33.7262 93.3564 33.3444 93.5661 33C93.7907 32.6556 94.0677 32.3711 94.3971 32.1465C94.7265 31.9069 95.1084 31.7871 95.5426 31.7871C95.9918 31.7871 96.3512 31.8994 96.6208 32.124C96.9053 32.3486 97.1299 32.6481 97.2946 33.0225C97.4593 33.3968 97.5941 33.8236 97.6989 34.3027C97.8037 34.7819 97.916 35.2686 98.0358 35.7627C98.1556 36.2568 98.3053 36.7435 98.485 37.2227C98.6647 37.7018 98.9118 38.1286 99.2262 38.5029C99.5407 38.8773 99.945 39.1768 100.439 39.4014C100.933 39.626 101.555 39.7383 102.303 39.7383ZM117.554 24.9814C117.554 23.0199 117.839 21.3053 118.408 19.8379C118.977 18.3555 119.733 17.1201 120.676 16.1318C121.635 15.1436 122.743 14.4023 124.001 13.9082C125.258 13.4141 126.576 13.167 127.954 13.167C129.331 13.167 130.649 13.3991 131.907 13.8633C133.165 14.3125 134.265 15.0088 135.209 15.9521C136.167 16.8955 136.931 18.0934 137.5 19.5459C138.069 20.9834 138.353 22.6904 138.353 24.667C138.353 26.6286 138.069 28.3656 137.5 29.8779C136.931 31.3903 136.167 32.6631 135.209 33.6963C134.265 34.7295 133.165 35.5156 131.907 36.0547C130.649 36.5788 129.331 36.8408 127.954 36.8408C126.576 36.8408 125.258 36.5938 124.001 36.0996C122.743 35.5905 121.635 34.8418 120.676 33.8535C119.733 32.8652 118.977 31.6299 118.408 30.1475C117.839 28.665 117.554 26.943 117.554 24.9814ZM131.368 24.7568C131.368 23.5589 131.323 22.4059 131.233 21.2979C131.158 20.1748 131.001 19.179 130.761 18.3105C130.522 17.4421 130.177 16.7533 129.728 16.2441C129.279 15.7201 128.687 15.458 127.954 15.458C127.22 15.458 126.629 15.735 126.179 16.2891C125.73 16.8281 125.386 17.5469 125.146 18.4453C124.907 19.3288 124.749 20.3395 124.674 21.4775C124.6 22.6156 124.562 23.7835 124.562 24.9814C124.562 26.1794 124.6 27.3548 124.674 28.5078C124.749 29.6458 124.907 30.6641 125.146 31.5625C125.386 32.4609 125.73 33.1872 126.179 33.7412C126.629 34.2803 127.22 34.5498 127.954 34.5498C128.687 34.5498 129.279 34.2653 129.728 33.6963C130.177 33.1273 130.522 32.3786 130.761 31.4502C131.001 30.5218 131.158 29.4736 131.233 28.3057C131.323 27.1377 131.368 25.9548 131.368 24.7568Z" fill="black"/>
</svg>
